PathFileType	4	(X/Y/Z)	C:\Users\xlb\Desktop\20210112\20210112\bx_n_10_901.trc
DataRate	CameraRate	NumFrames	NumMarkers	Units	OrigDataRate	OrigDataStartFrame	OrigNumFrames
50.00	50.00	       5	43	mm	50.00	195	       518
Frame#	Time	Top.Head			R.Acromium			L.Acromium			Sternum			R.ASIS			L.ASIS			V.Sacral			R.Thigh.Upper			R.Thigh.Front			R.Thigh.Rear			R.Knee.Lat			R.Knee.Med			R.Shank.Upper			R.Shank.Front			R.Shank.Rear			R.Ankle.Lat			R.Midfoot.Lat			R.Toe.Lat			R.Toe.Tip			R.Toe.Med			R.Ankle.Med			R.Midfoot.Sup			R.Heel			L.Thigh.Upper			L.Thigh.Front			L.Thigh.Rear			L.Knee.Lat			L.Knee.Med			L.Shank.Upper			L.Shank.Front			L.Shank.Rear			L.Ankle.Lat			L.Midfoot.Lat			L.Toe.Lat			L.Toe.Tip			L.Toe.Med			L.Ankle.Med			L.Midfoot.Sup			L.Heel			origin1 front left			origin2 front right			origin 3 back right			origin 4 back leftt			
		X1	Y1	Z1	X2	Y2	Z2	X3	Y3	Z3	X4	Y4	Z4	X5	Y5	Z5	X6	Y6	Z6	X7	Y7	Z7	X8	Y8	Z8	X9	Y9	Z9	X10	Y10	Z10	X11	Y11	Z11	X12	Y12	Z12	X13	Y13	Z13	X14	Y14	Z14	X15	Y15	Z15	X16	Y16	Z16	X17	Y17	Z17	X18	Y18	Z18	X19	Y19	Z19	X20	Y20	Z20	X21	Y21	Z21	X22	Y22	Z22	X23	Y23	Z23	X24	Y24	Z24	X25	Y25	Z25	X26	Y26	Z26	X27	Y27	Z27	X28	Y28	Z28	X29	Y29	Z29	X30	Y30	Z30	X31	Y31	Z31	X32	Y32	Z32	X33	Y33	Z33	X34	Y34	Z34	X35	Y35	Z35	X36	Y36	Z36	X37	Y37	Z37	X38	Y38	Z38	X39	Y39	Z39	X40	Y40	Z40	X41	Y41	Z41	X42	Y42	Z42	X43	Y43	Z43	

195	3.880	-745.97089	110.47426	1844.35425	-706.87311	-59.89081	1551.85229	-713.61615	283.47614	1553.72278	-603.52411	110.87886	1363.58899	-605.16846	-5.25124	1059.56274	-611.20874	252.53746	1070.05408	-813.24780	95.00112	1056.40454	-675.77002	-68.76259	877.51453	-596.05432	-9.54103	807.48956	-697.40710	-57.20582	762.64069	-718.21265	-33.27045	620.17474	-694.89337	74.71910	575.03137	-725.26062	-30.07373	571.09003	-669.07672	15.66290	522.40845	-767.44397	-39.26260	490.09793	-758.76086	-15.48586	206.88261	-649.72577	-69.09354	160.50490	-608.03082	-77.58492	155.93716	-547.34625	-31.79295	161.94960	-595.64258	23.44071	169.58371	-713.45215	70.90829	217.75125	-668.79535	53.65072	160.92291	-788.97186	44.53220	173.58896	-704.09845	282.51352	876.74805	-597.51447	220.65950	818.22571	-709.90906	271.40323	746.90820	-738.00220	252.44341	644.38336	-697.66858	147.20781	577.50775	-739.46539	248.74530	577.76276	-683.96039	209.56326	536.79785	-778.16400	257.86166	502.98508	-767.96802	228.38072	205.08527	-659.31592	299.74164	156.90723	-622.98993	307.96014	157.70955	-554.30310	255.79082	163.92384	-591.30597	220.44238	174.13158	-711.77490	155.14880	217.97633	-673.89813	174.61383	159.49570	-795.21106	178.86255	183.16086	-528.16724	304.17899	146.59251	-517.88391	-72.90306	143.13974	-875.95209	-78.82236	141.39931	-882.48529	296.16391	144.71443	
196	3.900	-746.35553	110.35672	1844.31567	-707.23920	-59.88102	1551.94788	-713.73053	283.25235	1553.94434	-603.38275	110.77142	1363.55310	-604.52472	-5.31585	1059.40271	-610.27332	252.82002	1070.29175	-812.62286	94.92361	1056.50989	-675.27753	-68.85938	877.39209	-595.69733	-9.52960	807.31677	-697.11737	-57.29831	762.57208	-718.27563	-33.34612	620.15393	-694.99561	74.62148	575.01080	-725.31427	-30.17827	571.06104	-669.20825	15.56093	522.36884	-767.54755	-39.39515	490.09988	-758.76086	-15.49837	206.83357	-649.76660	-69.11620	160.49422	-608.03625	-77.57008	155.94603	-547.34943	-31.80037	161.97101	-595.65704	23.41122	169.61975	-713.48193	70.89535	217.75371	-668.80902	53.64183	160.92990	-788.97180	44.54271	173.58568	-703.60364	282.44418	876.69812	-597.13312	220.56598	818.08667	-709.52136	271.43674	746.86865	-737.70313	252.41876	644.34662	-697.43597	147.13841	577.50049	-739.25079	248.69098	577.75391	-683.82672	209.51332	536.78650	-778.06824	257.85464	502.98322	-767.97968	228.37093	205.09084	-659.32874	299.75040	156.90692	-623.01935	307.96121	157.70482	-554.34698	255.80652	163.94440	-591.31274	220.44687	174.14095	-711.77167	155.13766	217.98511	-673.89368	174.59222	159.52225	-795.20593	178.86392	183.16318	-528.17859	304.16821	146.58017	-517.88062	-72.91130	143.14290	-875.95966	-78.82050	141.40642	-882.49115	296.17398	144.71312	
197	3.920	-746.63171	110.28749	1844.27539	-707.49939	-59.89779	1552.01489	-713.75726	283.02103	1554.13550	-603.20050	110.63567	1363.50854	-603.92316	-5.39887	1059.25549	-609.52576	253.01303	1070.52478	-812.03485	94.80549	1056.61462	-674.80573	-68.97004	877.26129	-595.36206	-9.56938	807.16541	-696.84888	-57.39222	762.48712	-718.33508	-33.46200	620.14063	-695.10034	74.49111	574.98877	-725.36670	-30.31198	571.03473	-669.35431	15.43032	522.33398	-767.65912	-39.55100	490.10138	-758.76044	-15.53293	206.77707	-649.80457	-69.14544	160.47760	-608.04010	-77.55632	155.95470	-547.35168	-31.80441	161.99232	-595.67023	23.38349	169.65228	-713.51373	70.88081	217.76846	-668.81757	53.63087	160.94612	-788.97864	44.54580	173.58945	-703.14270	282.34445	876.66046	-596.77704	220.42398	817.95514	-709.16388	271.41064	746.81219	-737.42725	252.35480	644.31458	-697.25433	147.04524	577.50220	-739.04962	248.60519	577.73151	-683.69598	209.42184	536.76721	-777.95746	257.82217	502.98068	-767.98535	228.35207	205.09772	-659.33429	299.75592	156.91129	-623.05109	307.96094	157.70152	-554.38885	255.82423	163.96109	-591.31866	220.45042	174.14958	-711.77051	155.12596	217.98915	-673.88727	174.56863	159.54651	-795.20001	178.84915	183.17651	-528.18793	304.15222	146.56528	-517.87952	-72.91783	143.14334	-875.96997	-78.81525	141.41646	-882.49652	296.17993	144.70729	
198	3.940	-746.80597	110.27958	1844.23206	-707.65546	-59.95431	1552.04834	-713.71686	282.77469	1554.29639	-602.98553	110.46948	1363.46619	-603.36285	-5.50339	1059.13281	-608.96112	253.11615	1070.74548	-811.47821	94.66405	1056.70691	-674.35547	-69.08910	877.13123	-595.05035	-9.65194	807.03149	-696.59412	-57.49422	762.39978	-718.38184	-33.60916	620.13409	-695.20331	74.33376	574.96167	-725.42041	-30.46586	571.01434	-669.49884	15.28264	522.30719	-767.77289	-39.71137	490.09918	-758.75897	-15.58097	206.72070	-649.83881	-69.18019	160.45509	-608.04205	-77.54466	155.96355	-547.35095	-31.80624	162.00929	-595.67755	23.35810	169.67831	-713.54034	70.86803	217.79184	-668.81879	53.61832	160.97032	-788.98822	44.54552	173.59935	-702.68414	282.22552	876.62939	-596.41479	220.23616	817.83765	-708.80426	271.32889	746.73932	-737.14789	252.26372	644.29352	-697.10382	146.93944	577.50946	-738.83844	248.50240	577.70038	-683.54053	209.29007	536.73993	-777.80243	257.77475	502.98862	-767.98114	228.32437	205.10643	-659.33203	299.75754	156.91908	-623.08282	307.95850	157.70088	-554.42389	255.84190	163.97165	-591.32129	220.44977	174.15504	-711.76648	155.11377	217.98836	-673.87982	174.54622	159.56702	-795.18744	178.81807	183.19746	-528.19263	304.13425	146.55067	-517.88007	-72.92202	143.14098	-875.98053	-78.80720	141.42499	-882.50073	296.18033	144.69728	
199	3.960	-746.88098	110.33199	1844.18628	-707.71136	-60.06102	1552.04480	-713.62866	282.50513	1554.42932	-602.74872	110.27401	1363.43262	-602.84180	-5.63126	1059.03882	-608.57690	253.12564	1070.94617	-810.94940	94.51691	1056.77771	-673.93127	-69.21239	877.01276	-594.76489	-9.76212	806.90894	-696.34961	-57.60986	762.32312	-718.41125	-33.77718	620.13440	-695.30328	74.15792	574.92682	-725.47955	-30.63039	571.00153	-669.62817	15.13057	522.29260	-767.88440	-39.85991	490.08994	-758.75604	-15.63218	206.67094	-649.86926	-69.21879	160.42767	-608.04230	-77.53575	155.97272	-547.34564	-31.80655	162.01793	-595.67584	23.33522	169.69644	-713.55695	70.85960	217.81842	-668.81134	53.60501	160.99973	-788.99573	44.54599	173.61374	-702.20453	282.10208	876.59857	-596.02332	220.01198	817.74158	-708.41895	271.20459	746.65399	-736.84528	252.16141	644.28668	-696.96326	146.83266	577.51837	-738.60181	248.40007	577.66803	-683.34229	209.12483	536.70752	-777.58612	257.72482	503.01669	-767.96466	228.29027	205.11746	-659.32257	299.75485	156.92863	-623.11224	307.95313	157.70361	-554.44885	255.85716	163.97577	-591.31885	220.44170	174.15457	-711.75549	155.10164	217.98357	-673.87262	174.52742	159.58307	-795.16449	178.77341	183.22276	-528.19067	304.11768	146.53972	-517.88196	-72.92361	143.13557	-875.98859	-78.79686	141.42813	-882.50378	296.17480	144.68427	
